{"title":"Bhaag Milkha Bhaag (2013) DVDRip - XviD - 1CD - Esub - [DDR-Excl","uid":9039647,"size":760742826,"categoryP":"video","categoryS":"movies","magnet":"?xt=urn:btih:f5d3a26163d30f22e9890aacee1b9c4f64dc4647&amp;dn=Bhaag+Milkha+Bhaag+%282013%29+DVDRip+-+XviD+-+1CD+-+Esub+-+%5BDDR-Excl&amp;tr=udp%3A%2F%2Ftracker.openbittorrent.com%3A80&amp;tr=udp%3A%2F%2Fopen.demonii.com%3A1337&amp;tr=udp%3A%2F%2Ftracker.coppersurfer.tk%3A6969&amp;tr=udp%3A%2F%2Fexodus.desync.com%3A6969","seeders":12,"leechers":3,"uploader":"SaM","files":-1,"time":1381594155,"description":"Movie Info\n---------------------------------------------------------------------------------------------------------------------------------------\n\nMovie Name : Bhaag Milkha Bhaag\nStarring : Farhan Akhtar, Sonam Kapoor, Pavan Malhotra\nDirected : Rakeysh Omprakash Mehra\nProducer : Rajiv Tandon\nIMDB Ratings: 8.1/10 from 13,459 users\nIMDB : Bhaag Milkha Bhaag (2013) - IMDb\nMovie Release Date : 12 July 2013\nRipper : AnMoL\nSource : DVD9 My Own Collection\nAudio : Hindi\nSubtitle : English\n\nTech Info\n---------------------------------------------------------------------------------------------------------------------------------------\n\nFormat : AVI\nFormat/Info : Audio Video Interleave\nFile size : 725 MiB\nDuration : 3h 6mn\nOverall bit rate : 544 Kbps\n\nVideo\nCodec ID : XVID\nCodec ID/Hint : XviD\nDuration : 3h 6mn\nBit rate : 455 Kbps\nWidth : 640 pixels\nHeight : 272 pixels\nDisplay aspect ratio : 2.35:1\nFrame rate : 23.976 fps\nColor space : YUV\nChroma subsampling : 4:2:0\nBit depth : 8 bits\nScan type : Progressive\nCompression mode : Lossy\nBits/(Pixel*Frame) : 0.109\nStream size : 606 MiB (84%)\n\nAudio\nID : 1\nFormat : MPEG Audio\nFormat version : Version 1\nFormat profile : Layer 3\nMode : Joint stereo\nMode extension : MS Stereo\nCodec ID : 55\nCodec ID/Hint : MP3\nDuration : 3h 6mn\nBit rate mode : Constant\nBit rate : 80.0 Kbps\nChannel(s) : 2 channels\nSampling rate : 32.0 KHz\nCompression mode : Lossy\nStream size : 107 MiB (15%)\n\n---------------------------------------------------------------------------------------------------------------------------------------\nScreen Shot\n---------------------------------------------------------------------------------------------------------------------------------------\n &lt;a href=&quot;\nhttp://imageshack.us/a/img541/899/yi86.png&quot; rel=&quot;nofollow&quot; target=&quot;_NEW&quot;&gt;\nhttp://imageshack.us/a/img541/899/yi86.png&lt;/a&gt; &lt;a href=&quot;\nhttp://imageshack.us/a/img34/113/1llr.png&quot; rel=&quot;nofollow&quot; target=&quot;_NEW&quot;&gt;\nhttp://imageshack.us/a/img34/113/1llr.png&lt;/a&gt; &lt;a href=&quot;\nhttp://imageshack.us/a/img703/2459/kdhx.png&quot; rel=&quot;nofollow&quot; target=&quot;_NEW&quot;&gt;\nhttp://imageshack.us/a/img703/2459/kdhx.png&lt;/a&gt; &lt;a href=&quot;\nhttp://imageshack.us/a/img9/4381/zix5.png&quot; rel=&quot;nofollow&quot; target=&quot;_NEW&quot;&gt;\nhttp://imageshack.us/a/img9/4381/zix5.png&lt;/a&gt; &lt;a href=&quot;\nhttp://imageshack.us/a/img33/1668/j8p3.png&quot; rel=&quot;nofollow&quot; target=&quot;_NEW&quot;&gt;\nhttp://imageshack.us/a/img33/1668/j8p3.png&lt;/a&gt; &lt;a href=&quot;\nhttp://imageshack.us/a/img834/9143/7tdj.png&quot; rel=&quot;nofollow&quot; target=&quot;_NEW&quot;&gt;\nhttp://imageshack.us/a/img834/9143/7tdj.png&lt;/a&gt; &lt;a href=&quot;\nhttp://imageshack.us/a/img834/1516/gaeq.png&quot; rel=&quot;nofollow&quot; target=&quot;_NEW&quot;&gt;\nhttp://imageshack.us/a/img834/1516/gaeq.png&lt;/a&gt; &lt;a href=&quot;\nhttp://imageshack.us/a/img841/8564/952z.png&quot; rel=&quot;nofollow&quot; target=&quot;_NEW&quot;&gt;\nhttp://imageshack.us/a/img841/8564/952z.png&lt;/a&gt;\n\n","torrent":{"xt":"urn:btih:f5d3a26163d30f22e9890aacee1b9c4f64dc4647","amp;dn":"Bhaag+Milkha+Bhaag+%282013%29+DVDRip+-+XviD+-+1CD+-+Esub+-+%5BDDR-Excl","amp;tr":["udp%3A%2F%2Ftracker.openbittorrent.com%3A80","udp%3A%2F%2Fopen.demonii.com%3A1337","udp%3A%2F%2Ftracker.coppersurfer.tk%3A6969","udp%3A%2F%2Fexodus.desync.com%3A6969"],"infoHash":"f5d3a26163d30f22e9890aacee1b9c4f64dc4647","infoHashBuffer":{"type":"Buffer","data":[245,211,162,97,99,211,15,34,233,137,10,172,238,27,156,79,100,220,70,71]},"announce":[],"urlList":[]}}